<?xml version="1.0" encoding="utf-8" standalone="no"?>
<!DOCTYPE svg PUBLIC "-//W3C//DTD SVG 1.1//EN"
  "http://www.w3.org/Graphics/SVG/1.1/DTD/svg11.dtd">
<svg xmlns:xlink="http://www.w3.org/1999/xlink" width="460.8pt" height="345.6pt" viewBox="0 0 460.8 345.6" xmlns="http://www.w3.org/2000/svg" version="1.1">
 <metadata>
  <rdf:RDF xmlns:dc="http://purl.org/dc/elements/1.1/" xmlns:cc="http://creativecommons.org/ns#" xmlns:rdf="http://www.w3.org/1999/02/22-rdf-syntax-ns#">
   <cc:Work>
    <dc:type rdf:resource="http://purl.org/dc/dcmitype/StillImage"/>
    <dc:date>2024-06-01T16:07:56.014923</dc:date>
    <dc:format>image/svg+xml</dc:format>
    <dc:creator>
     <cc:Agent>
      <dc:title>Matplotlib v3.8.3, https://matplotlib.org/</dc:title>
     </cc:Agent>
    </dc:creator>
   </cc:Work>
  </rdf:RDF>
 </metadata>
 <defs>
  <style type="text/css">*{stroke-linejoin: round; stroke-linecap: butt}</style>
 </defs>
 <g id="figure_1">
  <g id="patch_1">
   <path d="M 0 345.6 
L 460.8 345.6 
L 460.8 0 
L 0 0 
z
" style="fill: #f0f0f0"/>
  </g>
  <g id="axes_1">
   <g id="patch_2">
    <path d="M 57.6 307.584 
L 414.72 307.584 
L 414.72 41.472 
L 57.6 41.472 
z
" style="fill: #ffffff"/>
   </g>
   <g id="matplotlib.axis_1">
    <g id="xtick_1">
     <g id="line2d_1">
      <path d="M 88.589752 307.584 
L 88.589752 41.472 
" clip-path="url(#p38d5c1d888)" style="fill: none; stroke: #cbcbcb"/>
     </g>
     <g id="line2d_2"/>
     <g id="text_1">
      <!-- −10 -->
      <g transform="translate(80.229752 317.16275) scale(0.08 -0.08)">
       <defs>
        <path id="Verdana-2212" d="M 4550 1788 
L 688 1788 
L 688 2288 
L 4550 2288 
L 4550 1788 
z
" transform="scale(0.015625)"/>
        <path id="Verdana-31" d="M 3388 0 
L 869 0 
L 869 475 
L 1838 475 
L 1838 3594 
L 869 3594 
L 869 4019 
Q 1066 4019 1291 4051 
Q 1516 4084 1631 4147 
Q 1775 4225 1858 4345 
Q 1941 4466 1953 4669 
L 2438 4669 
L 2438 475 
L 3388 475 
L 3388 0 
z
" transform="scale(0.015625)"/>
        <path id="Verdana-30" d="M 3647 2328 
Q 3647 1075 3255 489 
Q 2863 -97 2038 -97 
Q 1200 -97 814 497 
Q 428 1091 428 2322 
Q 428 3563 818 4155 
Q 1209 4747 2038 4747 
Q 2875 4747 3261 4145 
Q 3647 3544 3647 2328 
z
M 2825 909 
Q 2934 1163 2973 1505 
Q 3013 1847 3013 2328 
Q 3013 2803 2973 3153 
Q 2934 3503 2822 3747 
Q 2713 3988 2523 4109 
Q 2334 4231 2038 4231 
Q 1744 4231 1551 4109 
Q 1359 3988 1247 3741 
Q 1141 3509 1102 3137 
Q 1063 2766 1063 2322 
Q 1063 1834 1097 1506 
Q 1131 1178 1244 919 
Q 1347 675 1536 547 
Q 1725 419 2038 419 
Q 2331 419 2525 541 
Q 2719 663 2825 909 
z
" transform="scale(0.015625)"/>
       </defs>
       <use xlink:href="#Verdana-2212"/>
       <use xlink:href="#Verdana-31" x="81.835938"/>
       <use xlink:href="#Verdana-30" x="145.410156"/>
      </g>
     </g>
    </g>
    <g id="xtick_2">
     <g id="line2d_3">
      <path d="M 162.374876 307.584 
L 162.374876 41.472 
" clip-path="url(#p38d5c1d888)" style="fill: none; stroke: #cbcbcb"/>
     </g>
     <g id="line2d_4"/>
     <g id="text_2">
      <!-- −5 -->
      <g transform="translate(156.558001 317.16275) scale(0.08 -0.08)">
       <defs>
        <path id="Verdana-35" d="M 3616 1478 
Q 3616 1153 3497 856 
Q 3378 559 3172 356 
Q 2947 138 2636 20 
Q 2325 -97 1916 -97 
Q 1534 -97 1181 -17 
Q 828 63 584 175 
L 584 834 
L 628 834 
Q 884 672 1228 558 
Q 1572 444 1903 444 
Q 2125 444 2333 506 
Q 2541 569 2703 725 
Q 2841 859 2911 1046 
Q 2981 1234 2981 1481 
Q 2981 1722 2898 1887 
Q 2816 2053 2669 2153 
Q 2506 2272 2273 2320 
Q 2041 2369 1753 2369 
Q 1478 2369 1223 2331 
Q 969 2294 784 2256 
L 784 4653 
L 3584 4653 
L 3584 4106 
L 1388 4106 
L 1388 2869 
Q 1522 2881 1662 2887 
Q 1803 2894 1906 2894 
Q 2284 2894 2568 2830 
Q 2853 2766 3091 2603 
Q 3341 2431 3478 2159 
Q 3616 1888 3616 1478 
z
" transform="scale(0.015625)"/>
       </defs>
       <use xlink:href="#Verdana-2212"/>
       <use xlink:href="#Verdana-35" x="81.835938"/>
      </g>
     </g>
    </g>
    <g id="xtick_3">
     <g id="line2d_5">
      <path d="M 236.16 307.584 
L 236.16 41.472 
" clip-path="url(#p38d5c1d888)" style="fill: none; stroke: #cbcbcb"/>
     </g>
     <g id="line2d_6"/>
     <g id="text_3">
      <!-- 0 -->
      <g transform="translate(233.616875 317.16275) scale(0.08 -0.08)">
       <use xlink:href="#Verdana-30"/>
      </g>
     </g>
    </g>
    <g id="xtick_4">
     <g id="line2d_7">
      <path d="M 309.945124 307.584 
L 309.945124 41.472 
" clip-path="url(#p38d5c1d888)" style="fill: none; stroke: #cbcbcb"/>
     </g>
     <g id="line2d_8"/>
     <g id="text_4">
      <!-- 5 -->
      <g transform="translate(307.401999 317.16275) scale(0.08 -0.08)">
       <use xlink:href="#Verdana-35"/>
      </g>
     </g>
    </g>
    <g id="xtick_5">
     <g id="line2d_9">
      <path d="M 383.730248 307.584 
L 383.730248 41.472 
" clip-path="url(#p38d5c1d888)" style="fill: none; stroke: #cbcbcb"/>
     </g>
     <g id="line2d_10"/>
     <g id="text_5">
      <!-- 10 -->
      <g transform="translate(378.643998 317.16275) scale(0.08 -0.08)">
       <use xlink:href="#Verdana-31"/>
       <use xlink:href="#Verdana-30" x="63.574219"/>
      </g>
     </g>
    </g>
    <g id="text_6">
     <!-- x -->
     <g transform="translate(233.319 330.06725) scale(0.096 -0.096)">
      <defs>
       <path id="Verdana-78" d="M 3600 0 
L 2859 0 
L 1869 1341 
L 872 0 
L 188 0 
L 1550 1741 
L 200 3491 
L 941 3491 
L 1925 2172 
L 2913 3491 
L 3600 3491 
L 2228 1772 
L 3600 0 
z
" transform="scale(0.015625)"/>
      </defs>
      <use xlink:href="#Verdana-78"/>
     </g>
    </g>
   </g>
   <g id="matplotlib.axis_2">
    <g id="ytick_1">
     <g id="line2d_11">
      <path d="M 57.6 295.488 
L 414.72 295.488 
" clip-path="url(#p38d5c1d888)" style="fill: none; stroke: #cbcbcb"/>
     </g>
     <g id="line2d_12"/>
     <g id="text_7">
      <!-- 0.0 -->
      <g transform="translate(41.0175 298.527375) scale(0.08 -0.08)">
       <defs>
        <path id="Verdana-2e" d="M 1538 0 
L 791 0 
L 791 891 
L 1538 891 
L 1538 0 
z
" transform="scale(0.015625)"/>
       </defs>
       <use xlink:href="#Verdana-30"/>
       <use xlink:href="#Verdana-2e" x="63.574219"/>
       <use xlink:href="#Verdana-30" x="99.951172"/>
      </g>
     </g>
    </g>
    <g id="ytick_2">
     <g id="line2d_13">
      <path d="M 57.6 249.405808 
L 414.72 249.405808 
" clip-path="url(#p38d5c1d888)" style="fill: none; stroke: #cbcbcb"/>
     </g>
     <g id="line2d_14"/>
     <g id="text_8">
      <!-- 0.2 -->
      <g transform="translate(41.0175 252.445183) scale(0.08 -0.08)">
       <defs>
        <path id="Verdana-32" d="M 3653 0 
L 503 0 
L 503 653 
Q 831 934 1161 1215 
Q 1491 1497 1775 1775 
Q 2375 2356 2597 2698 
Q 2819 3041 2819 3438 
Q 2819 3800 2580 4004 
Q 2341 4209 1913 4209 
Q 1628 4209 1297 4109 
Q 966 4009 650 3803 
L 619 3803 
L 619 4459 
Q 841 4569 1211 4659 
Q 1581 4750 1928 4750 
Q 2644 4750 3050 4404 
Q 3456 4059 3456 3469 
Q 3456 3203 3389 2973 
Q 3322 2744 3191 2538 
Q 3069 2344 2905 2156 
Q 2741 1969 2506 1741 
Q 2172 1413 1815 1105 
Q 1459 797 1150 534 
L 3653 534 
L 3653 0 
z
" transform="scale(0.015625)"/>
       </defs>
       <use xlink:href="#Verdana-30"/>
       <use xlink:href="#Verdana-2e" x="63.574219"/>
       <use xlink:href="#Verdana-32" x="99.951172"/>
      </g>
     </g>
    </g>
    <g id="ytick_3">
     <g id="line2d_15">
      <path d="M 57.6 203.323617 
L 414.72 203.323617 
" clip-path="url(#p38d5c1d888)" style="fill: none; stroke: #cbcbcb"/>
     </g>
     <g id="line2d_16"/>
     <g id="text_9">
      <!-- 0.4 -->
      <g transform="translate(41.0175 206.362992) scale(0.08 -0.08)">
       <defs>
        <path id="Verdana-34" d="M 3759 1309 
L 3069 1309 
L 3069 0 
L 2469 0 
L 2469 1309 
L 241 1309 
L 241 2028 
L 2494 4653 
L 3069 4653 
L 3069 1809 
L 3759 1809 
L 3759 1309 
z
M 2469 1809 
L 2469 3909 
L 666 1809 
L 2469 1809 
z
" transform="scale(0.015625)"/>
       </defs>
       <use xlink:href="#Verdana-30"/>
       <use xlink:href="#Verdana-2e" x="63.574219"/>
       <use xlink:href="#Verdana-34" x="99.951172"/>
      </g>
     </g>
    </g>
    <g id="ytick_4">
     <g id="line2d_17">
      <path d="M 57.6 157.241425 
L 414.72 157.241425 
" clip-path="url(#p38d5c1d888)" style="fill: none; stroke: #cbcbcb"/>
     </g>
     <g id="line2d_18"/>
     <g id="text_10">
      <!-- 0.6 -->
      <g transform="translate(41.0175 160.2808) scale(0.08 -0.08)">
       <defs>
        <path id="Verdana-36" d="M 3722 1509 
Q 3722 800 3255 351 
Q 2788 -97 2109 -97 
Q 1766 -97 1484 9 
Q 1203 116 988 325 
Q 719 584 573 1012 
Q 428 1441 428 2044 
Q 428 2663 561 3141 
Q 694 3619 984 3991 
Q 1259 4344 1693 4542 
Q 2128 4741 2706 4741 
Q 2891 4741 3016 4725 
Q 3141 4709 3269 4669 
L 3269 4072 
L 3238 4072 
Q 3150 4119 2973 4161 
Q 2797 4203 2613 4203 
Q 1941 4203 1541 3783 
Q 1141 3363 1075 2647 
Q 1338 2806 1592 2889 
Q 1847 2972 2181 2972 
Q 2478 2972 2704 2917 
Q 2931 2863 3169 2697 
Q 3444 2506 3583 2215 
Q 3722 1925 3722 1509 
z
M 3088 1484 
Q 3088 1775 3002 1965 
Q 2916 2156 2719 2297 
Q 2575 2397 2400 2428 
Q 2225 2459 2034 2459 
Q 1769 2459 1541 2396 
Q 1313 2334 1072 2203 
Q 1066 2134 1062 2070 
Q 1059 2006 1059 1909 
Q 1059 1416 1161 1130 
Q 1263 844 1441 678 
Q 1584 541 1751 477 
Q 1919 413 2116 413 
Q 2569 413 2828 689 
Q 3088 966 3088 1484 
z
" transform="scale(0.015625)"/>
       </defs>
       <use xlink:href="#Verdana-30"/>
       <use xlink:href="#Verdana-2e" x="63.574219"/>
       <use xlink:href="#Verdana-36" x="99.951172"/>
      </g>
     </g>
    </g>
    <g id="ytick_5">
     <g id="line2d_19">
      <path d="M 57.6 111.159233 
L 414.72 111.159233 
" clip-path="url(#p38d5c1d888)" style="fill: none; stroke: #cbcbcb"/>
     </g>
     <g id="line2d_20"/>
     <g id="text_11">
      <!-- 0.8 -->
      <g transform="translate(41.0175 114.198608) scale(0.08 -0.08)">
       <defs>
        <path id="Verdana-38" d="M 3688 1297 
Q 3688 694 3217 294 
Q 2747 -106 2034 -106 
Q 1278 -106 829 284 
Q 381 675 381 1284 
Q 381 1672 606 1986 
Q 831 2300 1241 2484 
L 1241 2503 
Q 866 2703 686 2940 
Q 506 3178 506 3534 
Q 506 4059 937 4409 
Q 1369 4759 2034 4759 
Q 2731 4759 3147 4425 
Q 3563 4091 3563 3575 
Q 3563 3259 3366 2954 
Q 3169 2650 2788 2478 
L 2788 2459 
Q 3225 2272 3456 1997 
Q 3688 1722 3688 1297 
z
M 2947 3569 
Q 2947 3903 2689 4101 
Q 2431 4300 2031 4300 
Q 1638 4300 1386 4112 
Q 1134 3925 1134 3606 
Q 1134 3381 1261 3217 
Q 1388 3053 1644 2925 
Q 1759 2869 1976 2778 
Q 2194 2688 2400 2628 
Q 2709 2834 2828 3056 
Q 2947 3278 2947 3569 
z
M 3044 1238 
Q 3044 1525 2917 1698 
Q 2791 1872 2422 2047 
Q 2275 2116 2100 2175 
Q 1925 2234 1634 2341 
Q 1353 2188 1183 1925 
Q 1013 1663 1013 1331 
Q 1013 909 1303 634 
Q 1594 359 2041 359 
Q 2497 359 2770 593 
Q 3044 828 3044 1238 
z
" transform="scale(0.015625)"/>
       </defs>
       <use xlink:href="#Verdana-30"/>
       <use xlink:href="#Verdana-2e" x="63.574219"/>
       <use xlink:href="#Verdana-38" x="99.951172"/>
      </g>
     </g>
    </g>
    <g id="ytick_6">
     <g id="line2d_21">
      <path d="M 57.6 65.077042 
L 414.72 65.077042 
" clip-path="url(#p38d5c1d888)" style="fill: none; stroke: #cbcbcb"/>
     </g>
     <g id="line2d_22"/>
     <g id="text_12">
      <!-- 1.0 -->
      <g transform="translate(41.0175 68.116417) scale(0.08 -0.08)">
       <use xlink:href="#Verdana-31"/>
       <use xlink:href="#Verdana-2e" x="63.574219"/>
       <use xlink:href="#Verdana-30" x="99.951172"/>
      </g>
     </g>
    </g>
    <g id="text_13">
     <!-- y -->
     <g transform="translate(35.0855 177.369) rotate(-90) scale(0.096 -0.096)">
      <defs>
       <path id="Verdana-79" d="M 3597 3491 
L 1559 -1288 
L 931 -1288 
L 1581 169 
L 191 3491 
L 828 3491 
L 1900 903 
L 2981 3491 
L 3597 3491 
z
" transform="scale(0.015625)"/>
      </defs>
      <use xlink:href="#Verdana-79"/>
     </g>
    </g>
   </g>
   <g id="PolyCollection_1">
    <defs>
     <path id="me00202fc08" d="M 73.832727 -50.112 
L 73.832727 -292.032 
L 236.16 -292.032 
L 236.16 -50.112 
L 236.16 -50.112 
L 73.832727 -50.112 
z
" style="stroke: #0096ff; stroke-opacity: 0.2; stroke-width: 0.5"/>
    </defs>
    <g clip-path="url(#p38d5c1d888)">
     <use xlink:href="#me00202fc08" x="0" y="345.6" style="fill: #0096ff; fill-opacity: 0.2; stroke: #0096ff; stroke-opacity: 0.2; stroke-width: 0.5"/>
    </g>
   </g>
   <g id="PolyCollection_2">
    <defs>
     <path id="m09edf217d4" d="M 236.16 -50.112 
L 236.16 -292.032 
L 398.487273 -292.032 
L 398.487273 -50.112 
L 398.487273 -50.112 
L 236.16 -50.112 
z
" style="stroke: #c00000; stroke-opacity: 0.2; stroke-width: 0.5"/>
    </defs>
    <g clip-path="url(#p38d5c1d888)">
     <use xlink:href="#m09edf217d4" x="0" y="345.6" style="fill: #c00000; fill-opacity: 0.2; stroke: #c00000; stroke-opacity: 0.2; stroke-width: 0.5"/>
    </g>
   </g>
   <g id="patch_3">
    <path d="M 238.16225 180.282521 
Q 253.295232 180.282521 268.428215 180.282521 
L 268.428215 177.782521 
Q 273.429939 179.032521 278.431664 180.282521 
Q 273.429939 181.532521 268.428215 182.782521 
L 268.428215 180.282521 
Q 253.295232 180.282521 238.16225 180.282521 
L 238.16225 180.282521 
z
" clip-path="url(#p38d5c1d888)" style="fill: #c00000; stroke: #c00000; stroke-width: 0.5; stroke-linecap: round"/>
   </g>
   <g id="patch_4">
    <path d="M 234.15775 180.282521 
Q 219.024768 180.282521 203.891785 180.282521 
L 203.891785 182.782521 
Q 198.890061 181.532521 193.888336 180.282521 
Q 198.890061 179.032521 203.891785 177.782521 
L 203.891785 180.282521 
Q 219.024768 180.282521 234.15775 180.282521 
L 234.15775 180.282521 
z
" clip-path="url(#p38d5c1d888)" style="fill: #0096ff; stroke: #0096ff; stroke-width: 0.5; stroke-linecap: round"/>
   </g>
   <g id="line2d_23">
    <path d="M 88.589752 295.47754 
L 91.570969 295.475198 
L 94.552186 295.472332 
L 97.533403 295.468825 
L 100.514621 295.464533 
L 103.495838 295.45928 
L 106.477055 295.452851 
L 109.458272 295.444984 
L 112.439489 295.435356 
L 115.420706 295.423574 
L 118.401923 295.409155 
L 121.38314 295.391512 
L 124.364358 295.369922 
L 127.345575 295.343504 
L 130.326792 295.31118 
L 133.308009 295.271631 
L 136.289226 295.223248 
L 139.270443 295.164061 
L 142.25166 295.091664 
L 145.232878 295.003122 
L 148.214095 294.894851 
L 151.195312 294.762479 
L 154.176529 294.60068 
L 157.157746 294.402969 
L 160.138963 294.161458 
L 163.12018 293.866572 
L 166.101397 293.506699 
L 169.082615 293.067799 
L 172.063832 292.532931 
L 175.045049 291.881726 
L 178.026266 291.089791 
L 181.007483 290.128057 
L 183.9887 288.962098 
L 186.969917 287.551449 
L 189.951134 285.849002 
L 192.932352 283.800551 
L 195.913569 281.344659 
L 198.894786 278.412996 
L 201.876003 274.931412 
L 204.85722 270.822012 
L 207.838437 266.006525 
L 210.819654 260.411198 
L 213.800872 253.973338 
L 216.782089 246.649325 
L 219.763306 238.423546 
L 222.744523 229.317221 
L 225.72574 219.395604 
L 228.706957 208.771795 
L 231.688174 197.605538 
L 234.669391 186.096037 
L 237.650609 174.469004 
L 240.631826 162.959503 
L 243.613043 151.793247 
L 246.59426 141.169438 
L 249.575477 131.24782 
L 252.556694 122.141495 
L 255.537911 113.915717 
L 258.519128 106.591703 
L 261.500346 100.153844 
L 264.481563 94.558517 
L 267.46278 89.743029 
L 270.443997 85.63363 
L 273.425214 82.152046 
L 276.406431 79.220382 
L 279.387648 76.76449 
L 282.368866 74.71604 
L 285.350083 73.013592 
L 288.3313 71.602944 
L 291.312517 70.436985 
L 294.293734 69.475251 
L 297.274951 68.683316 
L 300.256168 68.032111 
L 303.237385 67.497243 
L 306.218603 67.058342 
L 309.19982 66.69847 
L 312.181037 66.403584 
L 315.162254 66.162073 
L 318.143471 65.964362 
L 321.124688 65.802563 
L 324.105905 65.670191 
L 327.087122 65.56192 
L 330.06834 65.473378 
L 333.049557 65.400981 
L 336.030774 65.341794 
L 339.011991 65.29341 
L 341.993208 65.253862 
L 344.974425 65.221538 
L 347.955642 65.19512 
L 350.93686 65.17353 
L 353.918077 65.155886 
L 356.899294 65.141468 
L 359.880511 65.129686 
L 362.861728 65.120058 
L 365.842945 65.11219 
L 368.824162 65.105762 
L 371.805379 65.100509 
L 374.786597 65.096217 
L 377.767814 65.092709 
L 380.749031 65.089844 
L 383.730248 65.087502 
" clip-path="url(#p38d5c1d888)" style="fill: none; stroke: #0096ff; stroke-width: 4"/>
   </g>
   <g id="patch_5">
    <path d="M 57.6 307.584 
L 57.6 41.472 
" style="fill: none; stroke: #f0f0f0; stroke-width: 3; stroke-linejoin: miter; stroke-linecap: square"/>
   </g>
   <g id="patch_6">
    <path d="M 414.72 307.584 
L 414.72 41.472 
" style="fill: none; stroke: #f0f0f0; stroke-width: 3; stroke-linejoin: miter; stroke-linecap: square"/>
   </g>
   <g id="patch_7">
    <path d="M 57.6 307.584 
L 414.72 307.584 
" style="fill: none; stroke: #f0f0f0; stroke-width: 3; stroke-linejoin: miter; stroke-linecap: square"/>
   </g>
   <g id="patch_8">
    <path d="M 57.6 41.472 
L 414.72 41.472 
" style="fill: none; stroke: #f0f0f0; stroke-width: 3; stroke-linejoin: miter; stroke-linecap: square"/>
   </g>
   <g id="text_14">
    <!-- z &gt;= 0 -->
    <g transform="translate(266.16 175.282521) scale(0.08 -0.08)">
     <defs>
      <path id="Verdana-7a" d="M 3109 0 
L 291 0 
L 291 434 
L 2325 3000 
L 334 3000 
L 334 3491 
L 3056 3491 
L 3056 3072 
L 1013 497 
L 3109 497 
L 3109 0 
z
" transform="scale(0.015625)"/>
      <path id="Verdana-20" transform="scale(0.015625)"/>
      <path id="Verdana-3e" d="M 4444 1844 
L 838 241 
L 838 803 
L 3681 2038 
L 838 3272 
L 838 3834 
L 4444 2231 
L 4444 1844 
z
" transform="scale(0.015625)"/>
      <path id="Verdana-3d" d="M 4472 2444 
L 766 2444 
L 766 2944 
L 4472 2944 
L 4472 2444 
z
M 4472 1131 
L 766 1131 
L 766 1631 
L 4472 1631 
L 4472 1131 
z
" transform="scale(0.015625)"/>
     </defs>
     <use xlink:href="#Verdana-7a"/>
     <use xlink:href="#Verdana-20" x="52.539062"/>
     <use xlink:href="#Verdana-3e" x="87.695312"/>
     <use xlink:href="#Verdana-3d" x="169.53125"/>
     <use xlink:href="#Verdana-20" x="251.367188"/>
     <use xlink:href="#Verdana-30" x="286.523438"/>
    </g>
   </g>
   <g id="text_15">
    <!-- z &lt; 0 -->
    <g transform="translate(186.16 175.282521) scale(0.08 -0.08)">
     <defs>
      <path id="Verdana-3c" d="M 4400 241 
L 794 1844 
L 794 2231 
L 4400 3834 
L 4400 3272 
L 1556 2038 
L 4400 803 
L 4400 241 
z
" transform="scale(0.015625)"/>
     </defs>
     <use xlink:href="#Verdana-7a"/>
     <use xlink:href="#Verdana-20" x="52.539062"/>
     <use xlink:href="#Verdana-3c" x="87.695312"/>
     <use xlink:href="#Verdana-20" x="169.53125"/>
     <use xlink:href="#Verdana-30" x="204.6875"/>
    </g>
   </g>
   <g id="text_16">
    <!-- Sigmoid Function -->
    <g transform="translate(186.1686 35.472) scale(0.1152 -0.1152)">
     <defs>
      <path id="Verdana-53" d="M 4006 1328 
Q 4006 1056 3879 790 
Q 3753 525 3525 341 
Q 3275 141 2942 28 
Q 2609 -84 2141 -84 
Q 1638 -84 1236 9 
Q 834 103 419 288 
L 419 1063 
L 463 1063 
Q 816 769 1278 609 
Q 1741 450 2147 450 
Q 2722 450 3042 665 
Q 3363 881 3363 1241 
Q 3363 1550 3211 1697 
Q 3059 1844 2750 1925 
Q 2516 1988 2242 2028 
Q 1969 2069 1663 2131 
Q 1044 2263 745 2580 
Q 447 2897 447 3406 
Q 447 3991 940 4364 
Q 1434 4738 2194 4738 
Q 2684 4738 3093 4644 
Q 3503 4550 3819 4413 
L 3819 3681 
L 3775 3681 
Q 3509 3906 3076 4054 
Q 2644 4203 2191 4203 
Q 1694 4203 1392 3997 
Q 1091 3791 1091 3466 
Q 1091 3175 1241 3009 
Q 1391 2844 1769 2756 
Q 1969 2713 2337 2650 
Q 2706 2588 2963 2522 
Q 3481 2384 3743 2106 
Q 4006 1828 4006 1328 
z
" transform="scale(0.015625)"/>
      <path id="Verdana-69" d="M 1209 4075 
L 547 4075 
L 547 4684 
L 1209 4684 
L 1209 4075 
z
M 1172 0 
L 584 0 
L 584 3491 
L 1172 3491 
L 1172 0 
z
" transform="scale(0.015625)"/>
      <path id="Verdana-67" d="M 3409 397 
Q 3409 -491 3006 -906 
Q 2603 -1322 1766 -1322 
Q 1488 -1322 1223 -1283 
Q 959 -1244 703 -1172 
L 703 -572 
L 734 -572 
Q 878 -628 1190 -711 
Q 1503 -794 1816 -794 
Q 2116 -794 2312 -722 
Q 2509 -650 2619 -522 
Q 2728 -400 2775 -228 
Q 2822 -56 2822 156 
L 2822 475 
Q 2556 263 2314 158 
Q 2072 53 1697 53 
Q 1072 53 705 504 
Q 338 956 338 1778 
Q 338 2228 464 2554 
Q 591 2881 809 3119 
Q 1013 3341 1303 3464 
Q 1594 3588 1881 3588 
Q 2184 3588 2389 3527 
Q 2594 3466 2822 3341 
L 2859 3491 
L 3409 3491 
L 3409 397 
z
M 2822 959 
L 2822 2863 
Q 2588 2969 2386 3014 
Q 2184 3059 1984 3059 
Q 1500 3059 1222 2734 
Q 944 2409 944 1791 
Q 944 1203 1150 900 
Q 1356 597 1834 597 
Q 2091 597 2348 695 
Q 2606 794 2822 959 
z
" transform="scale(0.015625)"/>
      <path id="Verdana-6d" d="M 5672 0 
L 5084 0 
L 5084 1988 
Q 5084 2213 5064 2422 
Q 5044 2631 4978 2756 
Q 4906 2891 4772 2959 
Q 4638 3028 4384 3028 
Q 4138 3028 3891 2904 
Q 3644 2781 3397 2591 
Q 3406 2519 3412 2423 
Q 3419 2328 3419 2234 
L 3419 0 
L 2831 0 
L 2831 1988 
Q 2831 2219 2811 2426 
Q 2791 2634 2725 2759 
Q 2653 2894 2518 2961 
Q 2384 3028 2131 3028 
Q 1891 3028 1648 2909 
Q 1406 2791 1166 2606 
L 1166 0 
L 578 0 
L 578 3491 
L 1166 3491 
L 1166 3103 
Q 1441 3331 1714 3459 
Q 1988 3588 2297 3588 
Q 2653 3588 2901 3438 
Q 3150 3288 3272 3022 
Q 3628 3322 3922 3455 
Q 4216 3588 4550 3588 
Q 5125 3588 5398 3239 
Q 5672 2891 5672 2266 
L 5672 0 
z
" transform="scale(0.015625)"/>
      <path id="Verdana-6f" d="M 3553 1744 
Q 3553 891 3115 397 
Q 2678 -97 1944 -97 
Q 1203 -97 767 397 
Q 331 891 331 1744 
Q 331 2597 767 3092 
Q 1203 3588 1944 3588 
Q 2678 3588 3115 3092 
Q 3553 2597 3553 1744 
z
M 2947 1744 
Q 2947 2422 2681 2751 
Q 2416 3081 1944 3081 
Q 1466 3081 1202 2751 
Q 938 2422 938 1744 
Q 938 1088 1203 748 
Q 1469 409 1944 409 
Q 2413 409 2680 745 
Q 2947 1081 2947 1744 
z
" transform="scale(0.015625)"/>
      <path id="Verdana-64" d="M 3409 0 
L 2822 0 
L 2822 366 
Q 2569 147 2294 25 
Q 2019 -97 1697 -97 
Q 1072 -97 705 384 
Q 338 866 338 1719 
Q 338 2163 464 2509 
Q 591 2856 806 3100 
Q 1019 3338 1301 3463 
Q 1584 3588 1888 3588 
Q 2163 3588 2375 3530 
Q 2588 3472 2822 3350 
L 2822 4863 
L 3409 4863 
L 3409 0 
z
M 2822 859 
L 2822 2863 
Q 2584 2969 2396 3009 
Q 2209 3050 1988 3050 
Q 1494 3050 1219 2706 
Q 944 2363 944 1731 
Q 944 1109 1156 786 
Q 1369 463 1838 463 
Q 2088 463 2344 573 
Q 2600 684 2822 859 
z
" transform="scale(0.015625)"/>
      <path id="Verdana-46" d="M 3597 4103 
L 1244 4103 
L 1244 2791 
L 3266 2791 
L 3266 2241 
L 1244 2241 
L 1244 0 
L 625 0 
L 625 4653 
L 3597 4653 
L 3597 4103 
z
" transform="scale(0.015625)"/>
      <path id="Verdana-75" d="M 3472 0 
L 2884 0 
L 2884 388 
Q 2588 153 2316 28 
Q 2044 -97 1716 -97 
Q 1166 -97 859 239 
Q 553 575 553 1225 
L 553 3491 
L 1141 3491 
L 1141 1503 
Q 1141 1238 1166 1048 
Q 1191 859 1272 725 
Q 1356 588 1490 525 
Q 1625 463 1881 463 
Q 2109 463 2379 581 
Q 2650 700 2884 884 
L 2884 3491 
L 3472 3491 
L 3472 0 
z
" transform="scale(0.015625)"/>
      <path id="Verdana-6e" d="M 3497 0 
L 2909 0 
L 2909 1988 
Q 2909 2228 2881 2439 
Q 2853 2650 2778 2769 
Q 2700 2900 2553 2964 
Q 2406 3028 2172 3028 
Q 1931 3028 1668 2909 
Q 1406 2791 1166 2606 
L 1166 0 
L 578 0 
L 578 3491 
L 1166 3491 
L 1166 3103 
Q 1441 3331 1734 3459 
Q 2028 3588 2338 3588 
Q 2903 3588 3200 3247 
Q 3497 2906 3497 2266 
L 3497 0 
z
" transform="scale(0.015625)"/>
      <path id="Verdana-63" d="M 3159 219 
Q 2866 78 2602 0 
Q 2338 -78 2041 -78 
Q 1663 -78 1347 33 
Q 1031 144 806 369 
Q 578 594 453 937 
Q 328 1281 328 1741 
Q 328 2597 798 3084 
Q 1269 3572 2041 3572 
Q 2341 3572 2630 3487 
Q 2919 3403 3159 3281 
L 3159 2628 
L 3128 2628 
Q 2859 2838 2573 2950 
Q 2288 3063 2016 3063 
Q 1516 3063 1227 2727 
Q 938 2391 938 1741 
Q 938 1109 1220 770 
Q 1503 431 2016 431 
Q 2194 431 2378 478 
Q 2563 525 2709 600 
Q 2838 666 2950 739 
Q 3063 813 3128 866 
L 3159 866 
L 3159 219 
z
" transform="scale(0.015625)"/>
      <path id="Verdana-74" d="M 2391 31 
Q 2225 -13 2029 -41 
Q 1834 -69 1681 -69 
Q 1147 -69 869 218 
Q 591 506 591 1141 
L 591 2997 
L 194 2997 
L 194 3491 
L 591 3491 
L 591 4494 
L 1178 4494 
L 1178 3491 
L 2391 3491 
L 2391 2997 
L 1178 2997 
L 1178 1406 
Q 1178 1131 1190 976 
Q 1203 822 1278 688 
Q 1347 563 1467 505 
Q 1588 447 1834 447 
Q 1978 447 2134 489 
Q 2291 531 2359 559 
L 2391 559 
L 2391 31 
z
" transform="scale(0.015625)"/>
     </defs>
     <use xlink:href="#Verdana-53"/>
     <use xlink:href="#Verdana-69" x="68.359375"/>
     <use xlink:href="#Verdana-67" x="95.800781"/>
     <use xlink:href="#Verdana-6d" x="158.105469"/>
     <use xlink:href="#Verdana-6f" x="255.371094"/>
     <use xlink:href="#Verdana-69" x="316.064453"/>
     <use xlink:href="#Verdana-64" x="343.505859"/>
     <use xlink:href="#Verdana-20" x="405.810547"/>
     <use xlink:href="#Verdana-46" x="440.966797"/>
     <use xlink:href="#Verdana-75" x="498.4375"/>
     <use xlink:href="#Verdana-6e" x="561.71875"/>
     <use xlink:href="#Verdana-63" x="625"/>
     <use xlink:href="#Verdana-74" x="677.099609"/>
     <use xlink:href="#Verdana-69" x="716.503906"/>
     <use xlink:href="#Verdana-6f" x="743.945312"/>
     <use xlink:href="#Verdana-6e" x="804.638672"/>
    </g>
   </g>
  </g>
 </g>
 <defs>
  <clipPath id="p38d5c1d888">
   <rect x="57.6" y="41.472" width="357.12" height="266.112"/>
  </clipPath>
 </defs>
</svg>
